<?xml version="1.0" standalone="no"?>
<!DOCTYPE svg PUBLIC "-//W3C//DTD SVG 20010904//EN"
 "http://www.w3.org/TR/2001/REC-SVG-20010904/DTD/svg10.dtd">
<svg version="1.0" xmlns="http://www.w3.org/2000/svg"
 width="679.000000pt" height="679.000000pt" viewBox="0 0 679.000000 679.000000"
 preserveAspectRatio="xMidYMid meet">
<metadata>
Created by potrace 1.14, written by Peter Selinger 2001-2017
</metadata>
<g transform="translate(0.000000,679.000000) scale(0.100000,-0.100000)"
fill="#000000" stroke="none">
<path d="M524 6079 c6 -25 35 -174 41 -212 3 -12 16 -78 31 -147 14 -69 28
-136 30 -150 3 -14 13 -68 24 -120 21 -102 22 -106 45 -220 19 -95 18 -90 50
-245 14 -71 28 -143 31 -160 3 -16 12 -58 20 -93 7 -34 16 -77 19 -95 4 -17
26 -131 51 -252 24 -121 47 -233 49 -248 4 -21 217 -333 244 -357 3 -3 11 -13
16 -22 8 -13 388 -537 555 -766 49 -67 106 -146 284 -392 86 -118 159 -219
164 -225 4 -5 74 -102 155 -215 82 -113 157 -216 167 -230 10 -14 63 -86 117
-160 53 -74 101 -139 106 -145 4 -5 88 -120 185 -255 385 -534 456 -630 463
-630 5 0 14 11 21 24 15 28 26 44 468 676 45 65 326 468 530 762 96 138 200
287 230 330 30 43 147 211 260 373 113 163 275 396 360 518 475 678 473 676
497 762 43 151 92 330 107 385 20 76 94 347 106 390 19 64 72 255 77 275 7 27
78 287 163 595 38 140 70 258 70 263 0 5 -6 5 -12 0 -7 -6 -67 -38 -133 -73
-139 -73 -373 -198 -460 -245 -33 -18 -105 -56 -160 -85 -55 -29 -131 -69
-170 -90 -38 -20 -115 -61 -170 -90 -94 -49 -139 -73 -310 -165 -38 -21 -155
-83 -260 -138 l-190 -102 -970 0 -970 -1 -168 86 c-239 121 -670 343 -1042
535 -77 40 -257 132 -400 205 -143 73 -275 142 -293 152 l-33 20 5 -23z"/>
</g>
</svg>
